<svg xmlns="http://www.w3.org/2000/svg" width="100.38" height="33.41" viewBox="0 0 100.38 33.41">
  <g id="aeb45d3f-ee7a-4d49-b647-9b92006fae68" data-name="Layer 2">
    <g id="b44eb2a7-3957-4188-95df-e5fecfb4ddb1" data-name="icon">
      <g>
        <path d="M22,2V4H20v9.67l7.23,10A4,4,0,0,1,24,30H8a4,4,0,0,1-3.25-6.38l7.23-10V4H10V2H22M11.33,18h9.34L18,14.33V4H14V14.33L11.33,18M8,28H24a2,2,0,0,0,1.19-.39,2,2,0,0,0,.44-2.82L22.13,20H9.87L6.39,24.79A2,2,0,0,0,6,26a2,2,0,0,0,2,2" fill="#fff"/>
        <rect id="e0160bc4-b00a-4e18-97b0-1bdbf8d294b7" data-name=" Transparent Rectangle " width="32" height="32" fill="none"/>
        <text transform="translate(42.88 26.69)" font-size="25" fill="#fff" font-family="IBMPlexMono-BoldItalic, IBM Plex Mono" font-weight="700" font-style="italic" letter-spacing="-0.03em">Vial</text>
      </g>
    </g>
  </g>
</svg>
